<svg width="20" height="20" viewBox="0 0 20 20" fill="none" xmlns="http://www.w3.org/2000/svg">
<path fill-rule="evenodd" clip-rule="evenodd" d="M8.78115 1.8036C9.46315 1.74159 10.1381 1.9622 10.6506 2.40915L10.7752 2.52557L17.2943 9.04467C18.2316 9.98187 18.2691 11.4782 17.4068 12.4602L17.2943 12.5802L12.5802 17.2943C11.643 18.2315 10.1467 18.2689 9.16473 17.4067L9.04473 17.2943L2.52564 10.7752C2.04136 10.2909 1.77874 9.6311 1.79403 8.95129L1.80367 8.78101L2.19651 4.45983C2.30122 3.30803 3.18014 2.38549 4.31101 2.21445L4.45991 2.19644L8.78115 1.8036ZM6.68688 6.68764C6.03601 7.33852 6.03601 8.39376 6.68688 9.04467C7.33776 9.69551 8.39306 9.69551 9.0439 9.04467C9.69482 8.39376 9.69482 7.33852 9.0439 6.68764C8.39306 6.03677 7.33776 6.03677 6.68688 6.68764Z" fill="#956AFF"/>
</svg>
